<mxfile host="65bd71144e">
    <diagram id="NPCSmhCVRybj2wNrqcHK" name="第 1 页">
        <mxGraphModel dx="638" dy="616" grid="1" gridSize="10" guides="1" tooltips="1" connect="1" arrows="1" fold="1" page="1" pageScale="1" pageWidth="827" pageHeight="1169" math="0" shadow="0">
            <root>
                <mxCell id="0"/>
                <mxCell id="1" parent="0"/>
                <mxCell id="2" value="" style="triangle;whiteSpace=wrap;html=1;rotation=-90;fillColor=#f5f5f5;fontColor=#333333;strokeColor=#666666;" vertex="1" parent="1">
                    <mxGeometry x="100" y="80" width="80" height="95" as="geometry"/>
                </mxCell>
                <mxCell id="3" value="noeviction&lt;br&gt;(抛异常)" style="text;html=1;strokeColor=none;fillColor=none;align=center;verticalAlign=middle;whiteSpace=wrap;rounded=0;" vertex="1" parent="1">
                    <mxGeometry x="20" y="76.56" width="60" height="30" as="geometry"/>
                </mxCell>
                <mxCell id="4" value="allkeys&lt;br&gt;(允许淘汰所有 keys)" style="text;html=1;strokeColor=none;fillColor=none;align=center;verticalAlign=middle;whiteSpace=wrap;rounded=0;" vertex="1" parent="1">
                    <mxGeometry x="70" y="210" width="140" height="30" as="geometry"/>
                </mxCell>
                <mxCell id="6" value="volatile&lt;br&gt;(只淘汰没有 TTL 的 keys)" style="text;html=1;strokeColor=none;fillColor=none;align=center;verticalAlign=middle;whiteSpace=wrap;rounded=0;" vertex="1" parent="1">
                    <mxGeometry x="210" y="80" width="140" height="30" as="geometry"/>
                </mxCell>
                <mxCell id="9" value="" style="shape=trapezoid;perimeter=trapezoidPerimeter;whiteSpace=wrap;html=1;fixedSize=1;rotation=-120;size=40;fillColor=#d5e8d4;strokeColor=#82b366;" vertex="1" parent="1">
                    <mxGeometry x="90" y="106.56" width="180" height="20" as="geometry"/>
                </mxCell>
                <mxCell id="11" value="" style="shape=trapezoid;perimeter=trapezoidPerimeter;whiteSpace=wrap;html=1;fixedSize=1;rotation=0;size=40;fillColor=#fff2cc;strokeColor=#d6b656;" vertex="1" parent="1">
                    <mxGeometry x="50" y="175" width="180" height="20" as="geometry"/>
                </mxCell>
                <mxCell id="12" value="" style="shape=trapezoid;perimeter=trapezoidPerimeter;whiteSpace=wrap;html=1;fixedSize=1;rotation=-240;size=40;fillColor=#f8cecc;strokeColor=#b85450;" vertex="1" parent="1">
                    <mxGeometry x="10" y="106.56" width="180" height="20" as="geometry"/>
                </mxCell>
            </root>
        </mxGraphModel>
    </diagram>
</mxfile>